<?xml version="1.0" encoding="utf-8"?>
<!-- Generator: Adobe Illustrator 18.0.0, SVG Export Plug-In . SVG Version: 6.00 Build 0)  -->
<!DOCTYPE svg PUBLIC "-//W3C//DTD SVG 1.1//EN" "http://www.w3.org/Graphics/SVG/1.1/DTD/svg11.dtd">
<svg version="1.1" xmlns="http://www.w3.org/2000/svg" xmlns:xlink="http://www.w3.org/1999/xlink" x="0px" y="0px"
	 viewBox="0 0 595.3 595.3" enable-background="new 0 0 595.3 595.3" xml:space="preserve">
<g id="Capa_1">
</g>
<g id="Capa_2">
	<path opacity="0.6" fill="#53B583" d="M295.6,566.1c-38.2,0-76.5,0.6-114.7-0.1c-83.5-1.6-150.9-68.4-152.1-152
		c-1.1-77.4-1-154.9,0-232.3C29.8,96.8,97,29.5,182.6,28c76.4-1.3,153-1.4,229.4-0.1c87.4,1.5,153.7,68.2,155,155.4
		c1.1,75.5,1.1,151,0.1,226.5c-1.2,90.3-68.7,155.6-159.6,156.2C370.1,566.2,332.9,566.1,295.6,566.1z"/>
	<path opacity="0.6" fill="#53B583" d="M192.2,447.5h-67V232.8h67V447.5z M157,205.9h-0.5c-24.4,0-40.1-16.4-40.1-37.3
		c0-21.2,16.2-37.3,40.9-37.3s39.9,16.1,40.4,37.1C197.9,189.5,182.2,205.9,157,205.9z M460.6,447.5h-76v-111
		c0-29-11.9-48.9-38-48.9c-20,0-31.1,13.3-36.3,26.2c-1.9,4.7-1.6,11.1-1.6,17.6v116.2h-75.5c0,0,1-196.7,0-214.7h75.3v33.7
		c4.5-14.7,28.5-35.7,67-35.7c47.7,0,85.1,30.9,85.1,97.4v119.2H460.6z"/>
	<path fill="#FFFFFF" d="M201.5,454.7h-67V240h67V454.7z M166.3,213.1h-0.5c-24.4,0-40.1-16.4-40.1-37.3c0-21.2,16.2-37.3,40.9-37.3
		s39.9,16.1,40.4,37.1C207.2,196.7,191.5,213.1,166.3,213.1z M469.9,454.7h-76v-111c0-29-11.9-48.9-38-48.9
		c-20,0-31.1,13.3-36.3,26.2c-1.9,4.7-1.6,11.1-1.6,17.6v116.2h-75.5c0,0,1-196.7,0-214.7h75.3v33.7c4.5-14.7,28.5-35.7,67-35.7
		c47.7,0,85.1,30.9,85.1,97.4v119.2H469.9z"/>
</g>
</svg>
